<svg width="76" height="65" viewBox="0 0 76 65" fill="none" xmlns="http://www.w3.org/2000/svg">
<path d="M16 20.7029H38" stroke="#7B4AE2" stroke-linecap="round" stroke-linejoin="round"/>
<path d="M50 20.7029H72" stroke="#7B4AE2" stroke-linecap="round" stroke-linejoin="round"/>
<path d="M44 26.7014C47.3137 26.7014 50 24.0158 50 20.703C50 17.3901 47.3137 14.7045 44 14.7045C40.6863 14.7045 38 17.3901 38 20.703C38 24.0158 40.6863 26.7014 44 26.7014Z" stroke="#7B4AE2" stroke-linecap="round" stroke-linejoin="round"/>
<path d="M22 50.6952C25.3137 50.6952 28 48.0096 28 44.6968C28 41.3839 25.3137 38.6983 22 38.6983C18.6863 38.6983 16 41.3839 16 44.6968C16 48.0096 18.6863 50.6952 22 50.6952Z" stroke="#7B4AE2" stroke-linecap="round" stroke-linejoin="round"/>
<path d="M66 50.6952C69.3137 50.6952 72 48.0096 72 44.6968C72 41.3839 69.3137 38.6983 66 38.6983C62.6863 38.6983 60 41.3839 60 44.6968C60 48.0096 62.6863 50.6952 66 50.6952Z" stroke="#7B4AE2" stroke-linecap="round" stroke-linejoin="round"/>
<path d="M49.95 21.5277C53.9094 22.639 57.4785 24.8363 60.2533 27.871C63.028 30.9056 64.8974 34.6562 65.65 38.6983" stroke="#7B4AE2" stroke-linecap="round" stroke-linejoin="round"/>
<path d="M22.35 38.6983C23.1025 34.6562 24.972 30.9056 27.7467 27.871C30.5214 24.8363 34.0905 22.639 38.05 21.5277" stroke="#7B4AE2" stroke-linecap="round" stroke-linejoin="round"/>
<g filter="url(#filter0_d_21_2905)">
<circle cx="24" cy="35" r="20" fill="#7B4AE2" fill-opacity="0.2" shape-rendering="crispEdges"/>
</g>
<defs>
<filter id="filter0_d_21_2905" x="0" y="15" width="48" height="48" filterUnits="userSpaceOnUse" color-interpolation-filters="sRGB">
<feFlood flood-opacity="0" result="BackgroundImageFix"/>
<feColorMatrix in="SourceAlpha" type="matrix" values="0 0 0 0 0 0 0 0 0 0 0 0 0 0 0 0 0 0 127 0" result="hardAlpha"/>
<feOffset dy="4"/>
<feGaussianBlur stdDeviation="2"/>
<feComposite in2="hardAlpha" operator="out"/>
<feColorMatrix type="matrix" values="0 0 0 0 0 0 0 0 0 0 0 0 0 0 0 0 0 0 0.25 0"/>
<feBlend mode="normal" in2="BackgroundImageFix" result="effect1_dropShadow_21_2905"/>
<feBlend mode="normal" in="SourceGraphic" in2="effect1_dropShadow_21_2905" result="shape"/>
</filter>
</defs>
</svg>
