<svg width="656" height="650" viewBox="0 0 656 650" fill="none" xmlns="http://www.w3.org/2000/svg">
<path d="M565.667 309.593C565.667 167.325 450.231 51.9934 307.834 51.9934C165.436 51.9934 50 167.325 50 309.593C50 451.862 165.436 567.193 307.834 567.193C450.231 567.193 565.667 451.862 565.667 309.593Z" fill="#7B4AE2" fill-opacity="0.2"/>
<g filter="url(#filter0_d_348_28)">
<circle cx="570.143" cy="331.11" r="35.8102" fill="#090E16"/>
</g>
<g clip-path="url(#clip0_348_28)">
<path fill-rule="evenodd" clip-rule="evenodd" d="M585.251 313.085H555.036C553.491 313.085 552.238 314.337 552.238 315.882V346.089C552.238 347.634 553.491 348.886 555.036 348.886H585.251C586.796 348.886 588.049 347.634 588.049 346.089V315.882C588.049 314.337 586.796 313.085 585.251 313.085ZM573.293 344.983V341.121C573.994 341.708 574.755 342.149 575.577 342.442C576.399 342.736 577.229 342.883 578.066 342.883C578.558 342.883 578.987 342.839 579.353 342.75C579.72 342.662 580.026 342.539 580.272 342.382C580.517 342.225 580.701 342.04 580.821 341.827C580.942 341.614 581.003 341.382 581.003 341.133C581.003 340.795 580.906 340.493 580.713 340.228C580.519 339.962 580.256 339.717 579.921 339.491C579.587 339.266 579.19 339.049 578.731 338.84C578.272 338.63 577.776 338.417 577.245 338.2C575.891 337.636 574.882 336.948 574.218 336.136C573.553 335.323 573.221 334.341 573.221 333.191C573.221 332.289 573.402 331.515 573.765 330.867C574.127 330.219 574.621 329.686 575.245 329.268C575.869 328.849 576.592 328.541 577.414 328.344C578.236 328.147 579.106 328.049 580.024 328.049C580.926 328.049 581.726 328.103 582.423 328.211C583.119 328.32 583.762 328.487 584.35 328.712V332.321C584.06 332.12 583.744 331.943 583.401 331.79C583.059 331.637 582.706 331.511 582.344 331.41C581.981 331.309 581.621 331.235 581.262 331.187C580.904 331.139 580.564 331.114 580.241 331.114C579.798 331.114 579.396 331.157 579.033 331.241C578.671 331.326 578.364 331.444 578.115 331.597C577.865 331.75 577.672 331.933 577.535 332.146C577.398 332.36 577.329 332.599 577.329 332.865C577.329 333.154 577.406 333.414 577.559 333.643C577.712 333.872 577.929 334.09 578.211 334.295C578.493 334.5 578.836 334.701 579.238 334.899C579.641 335.096 580.096 335.299 580.604 335.508C581.297 335.798 581.919 336.106 582.471 336.431C583.023 336.757 583.496 337.125 583.891 337.536C584.285 337.946 584.587 338.415 584.797 338.942C585.006 339.469 585.111 340.083 585.111 340.783C585.111 341.749 584.928 342.559 584.561 343.215C584.195 343.871 583.697 344.402 583.069 344.808C582.441 345.215 581.71 345.506 580.876 345.683C580.042 345.86 579.162 345.949 578.236 345.949C577.285 345.949 576.381 345.869 575.523 345.708C574.665 345.547 573.922 345.305 573.293 344.983ZM571.822 331.509H566.854V345.669H562.918V331.509H557.974V328.328H571.822V331.509Z" fill="#7B4AE2" fill-opacity="0.5"/>
</g>
<g filter="url(#filter1_d_348_28)">
<circle cx="85.8102" cy="239.794" r="35.8102" fill="#090E16"/>
</g>
<path d="M99.2074 233.396C98.7899 233.252 98.3572 233.116 97.9117 232.988C97.9849 232.689 98.0521 232.394 98.1119 232.104C99.0927 227.345 98.4514 223.51 96.2617 222.248C94.1619 221.037 90.728 222.3 87.26 225.317C86.9265 225.607 86.592 225.914 86.2577 226.236C86.035 226.023 85.8126 225.817 85.5908 225.62C81.9562 222.394 78.313 221.034 76.1254 222.301C74.0277 223.515 73.4065 227.119 74.2893 231.63C74.3746 232.066 74.4742 232.511 74.5869 232.963C74.0713 233.109 73.5735 233.265 73.0973 233.431C68.836 234.917 66.1146 237.244 66.1146 239.659C66.1146 242.153 69.036 244.654 73.4745 246.171C73.8247 246.29 74.1882 246.403 74.5627 246.511C74.4411 247 74.3354 247.48 74.2466 247.947C73.4048 252.38 74.0622 255.899 76.1543 257.106C78.3153 258.351 81.942 257.071 85.4735 253.985C85.7526 253.741 86.0327 253.482 86.3133 253.211C86.6771 253.561 87.0402 253.892 87.4014 254.203C90.8221 257.146 94.2006 258.334 96.2907 257.125C98.4496 255.875 99.1511 252.094 98.2403 247.494C98.1707 247.143 98.0898 246.784 97.9988 246.419C98.2535 246.344 98.5036 246.266 98.7474 246.185C103.362 244.657 106.364 242.186 106.364 239.659C106.364 237.236 103.554 234.892 99.2074 233.396ZM98.2066 244.554C97.9865 244.626 97.7607 244.697 97.5306 244.765C97.0212 243.153 96.3337 241.438 95.4924 239.667C96.2953 237.938 96.9562 236.246 97.4513 234.644C97.863 234.763 98.2626 234.889 98.6477 235.021C102.372 236.303 104.644 238.199 104.644 239.659C104.644 241.214 102.191 243.234 98.2066 244.554ZM96.5535 247.828C96.9563 249.862 97.0138 251.701 96.747 253.139C96.5073 254.431 96.0252 255.292 95.4292 255.637C94.1607 256.371 91.4482 255.417 88.5228 252.9C88.1874 252.612 87.8496 252.304 87.5108 251.978C88.6449 250.738 89.7783 249.296 90.8846 247.695C92.8303 247.522 94.6686 247.24 96.3357 246.855C96.4178 247.186 96.4907 247.511 96.5535 247.828ZM79.8364 255.51C78.5971 255.948 77.6101 255.96 77.0135 255.616C75.7439 254.884 75.2161 252.058 75.936 248.268C76.0185 247.834 76.1166 247.388 76.2298 246.932C77.8785 247.296 79.7034 247.559 81.6538 247.717C82.7675 249.283 83.9337 250.723 85.1089 251.984C84.8521 252.232 84.5963 252.468 84.342 252.69C82.7804 254.055 81.2155 255.023 79.8364 255.51ZM74.0305 244.544C72.068 243.873 70.4472 243.002 69.3362 242.051C68.338 241.196 67.8339 240.347 67.8339 239.659C67.8339 238.194 70.019 236.325 73.6632 235.055C74.1054 234.9 74.5683 234.755 75.0487 234.619C75.5523 236.257 76.213 237.969 77.0103 239.701C76.2027 241.458 75.5326 243.198 75.024 244.855C74.6816 244.757 74.3498 244.653 74.0305 244.544ZM75.9767 231.3C75.2203 227.435 75.7227 224.52 76.9868 223.788C78.3333 223.009 81.3109 224.12 84.4491 226.906C84.6497 227.084 84.8511 227.27 85.0531 227.463C83.8836 228.719 82.7281 230.148 81.6243 231.705C79.7314 231.881 77.9194 232.162 76.2534 232.54C76.1487 232.118 76.0559 231.705 75.9767 231.3ZM93.3383 235.586C92.9401 234.898 92.5312 234.227 92.1144 233.574C93.3986 233.736 94.629 233.951 95.7844 234.215C95.4375 235.326 95.0052 236.488 94.4962 237.68C94.1311 236.987 93.745 236.288 93.3383 235.586ZM86.2583 228.692C87.0514 229.551 87.8456 230.51 88.6268 231.55C87.8396 231.513 87.0427 231.494 86.2391 231.494C85.4432 231.494 84.6521 231.513 83.8697 231.549C84.6517 230.518 85.4528 229.561 86.2583 228.692ZM79.1329 235.598C78.7351 236.287 78.3561 236.982 77.9968 237.679C77.496 236.491 77.0677 235.324 76.7178 234.197C77.8662 233.94 79.0907 233.73 80.3668 233.57C79.9441 234.23 79.5318 234.906 79.1329 235.598V235.598ZM80.4035 245.87C79.0852 245.723 77.8422 245.524 76.6941 245.274C77.0496 244.126 77.4874 242.934 77.9987 241.721C78.359 242.417 78.7395 243.112 79.1397 243.803H79.1398C79.5475 244.508 79.9699 245.197 80.4035 245.87ZM86.3059 250.747C85.491 249.868 84.6781 248.896 83.8842 247.85C84.6549 247.88 85.4406 247.896 86.2391 247.896C87.0595 247.896 87.8705 247.877 88.6687 247.842C87.885 248.906 87.0936 249.88 86.3059 250.747ZM94.5126 241.66C95.0506 242.885 95.5041 244.072 95.8642 245.199C94.6972 245.465 93.4372 245.68 92.1097 245.839C92.5275 245.177 92.9399 244.494 93.3452 243.792C93.7552 243.081 94.1445 242.369 94.5126 241.66ZM91.8558 242.933C91.2267 244.023 90.5807 245.065 89.925 246.047C88.7306 246.133 87.4967 246.177 86.2391 246.177C84.9866 246.177 83.7682 246.138 82.595 246.062C81.9128 245.066 81.2529 244.022 80.6277 242.942H80.6278C80.0043 241.866 79.4305 240.78 78.9105 239.7C79.4303 238.618 80.0027 237.531 80.6226 236.456L80.6225 236.457C81.244 235.379 81.8982 234.34 82.5741 233.35C83.7711 233.26 84.9986 233.213 86.239 233.213H86.2391C87.4852 233.213 88.7142 233.26 89.9109 233.352C90.5764 234.334 91.2262 235.369 91.8502 236.447C92.4813 237.537 93.061 238.617 93.5853 239.676C93.0626 240.753 92.4841 241.844 91.8558 242.933ZM95.4028 223.737C96.7506 224.514 97.2748 227.648 96.4279 231.757C96.3739 232.02 96.3131 232.287 96.247 232.557C94.5772 232.172 92.7639 231.886 90.8654 231.708C89.7595 230.133 88.6134 228.702 87.4631 227.462C87.7723 227.165 88.0812 226.881 88.3888 226.614C91.3602 224.028 94.1374 223.008 95.4028 223.737ZM86.2391 236.066C88.2241 236.066 89.8332 237.674 89.8332 239.659C89.8332 241.643 88.2241 243.252 86.2391 243.252C84.2542 243.252 82.645 241.643 82.645 239.659C82.645 237.674 84.2542 236.066 86.2391 236.066Z" fill="#7B4AE2" fill-opacity="0.5"/>
<g filter="url(#filter2_d_348_28)">
<circle cx="85.8102" cy="468.98" r="35.8102" fill="#090E16"/>
</g>
<path fill-rule="evenodd" clip-rule="evenodd" d="M76.593 449.636C76.593 449.636 75.759 443.846 89.1141 443.846C103.071 443.846 101.992 450.827 101.992 450.827V462.362C101.992 469.339 94.8907 469.224 94.8907 469.224H82.2505C74.6707 469.224 74.9106 476.681 74.9106 476.681V482.933H70.459C70.459 482.933 63 483.41 63 469.938C63 456.467 71.5459 457.435 71.5459 457.435H89.3523V455.634H76.6079L76.593 449.636ZM84.3796 450.172C84.3796 448.904 83.3547 447.88 82.0868 447.88C80.8188 447.88 79.794 448.904 79.794 450.172C79.794 451.439 80.8188 452.464 82.0868 452.464C83.3547 452.464 84.3796 451.439 84.3796 450.172Z" fill="#7B4AE2" fill-opacity="0.5"/>
<path fill-rule="evenodd" clip-rule="evenodd" d="M102.014 490.376C102.014 490.376 102.848 496.166 89.4934 496.166C75.5367 496.166 76.615 489.185 76.615 489.185V477.65C76.615 470.673 83.7167 470.788 83.7167 470.788H96.3569C103.937 470.788 103.697 463.331 103.697 463.331V457.079H108.148C108.148 457.079 115.607 456.602 115.607 470.073C115.607 483.545 107.062 482.576 107.062 482.576H89.2551V484.377H102L102.014 490.376ZM94.2278 489.84C94.2278 491.108 95.2527 492.132 96.5206 492.132C97.7886 492.132 98.8134 491.108 98.8134 489.84C98.8134 488.572 97.7886 487.548 96.5206 487.548C95.2527 487.548 94.2278 488.572 94.2278 489.84Z" fill="#7B4AE2" fill-opacity="0.5"/>
<g filter="url(#filter3_f_348_28)">
<circle cx="309.624" cy="305.148" r="255.148" fill="#7B4AE2" fill-opacity="0.2"/>
</g>
<g filter="url(#filter4_i_348_28)">
<path fill-rule="evenodd" clip-rule="evenodd" d="M239.624 466.77C205.652 470.076 174.789 482.725 149.107 503.807C127.008 521.872 120.843 536.229 104.663 556.676C137.629 590.841 181.958 619.788 230.298 635.776C262.543 646.374 284.54 649.793 319.088 649.793C353.639 649.793 375.634 646.374 407.881 635.776C456.649 620.197 497.728 594.666 534.759 558.022C509.396 525.32 498.957 503.887 458.091 483.75C440.931 475.203 420.778 469.049 405.346 467.454L398.078 466.799L397.733 466.792L396.939 472.24C393.485 498.223 360.895 517.369 320.241 517.369C279.589 517.369 247.573 498.451 243.426 472.127C242.621 466.885 242.274 466.428 239.626 466.77H239.624Z" fill="#090E16"/>
</g>
<path fill-rule="evenodd" clip-rule="evenodd" d="M266.702 406.611C302.32 425.592 342.26 423.483 373.554 406.61V448.19L373.907 448.181V472.594H266.702V406.611Z" fill="#BB7D52"/>
<path fill-rule="evenodd" clip-rule="evenodd" d="M266.701 441.257C302.318 460.238 342.26 458.129 373.554 441.257V467.772L397.618 467.172L397.917 467.184C397.917 531.095 245.083 540.662 245.083 467.087L245.68 467.061L266.701 467.168V441.257Z" fill="#D08B5B"/>
<path fill-rule="evenodd" clip-rule="evenodd" d="M204.132 178.59C289.131 124.484 397.872 143.725 434.611 179.403C445.233 204.957 445.983 229.604 442.859 256.061C450.035 250.914 458.567 252.092 465.291 256.886C468.014 278.84 475.311 322.268 442.616 324.153C468.716 491.506 175.593 491.506 197.236 324.611C164.831 323.493 173.569 279.602 175.594 258.525C183.368 252.612 192.246 255.588 197.756 258.233L204.132 178.59Z" fill="#D08B5B"/>
<path fill-rule="evenodd" clip-rule="evenodd" d="M191.507 237.92C191.954 239.146 190.503 240.372 186.151 242.602C177.143 247.1 176.353 248.035 176.33 255.081V255.422C176.33 264.897 177.781 267.348 184.03 268.241C190.391 269.133 194.41 270.581 195.526 272.365C195.971 273.146 196.419 276.713 196.419 280.392C196.419 288.307 198.873 299.455 201.887 305.251C210.368 321.75 232.464 330.111 259.248 326.989C272.416 325.317 280.117 322.753 288.487 317.179C300.986 308.819 306.789 298.117 307.681 281.284C308.351 271.028 308.351 271.028 311.7 269.913C316.052 268.353 326.877 268.353 331.341 269.913C334.8 271.139 334.8 271.139 334.8 279.055C334.8 288.195 337.144 299.12 340.268 305.252C348.75 321.75 370.847 330.111 397.519 326.989C410.799 325.318 418.499 322.753 426.869 317.18C439.368 308.82 445.172 297.783 446.287 280.504C447.068 269.133 446.511 269.691 458.786 268.13C465.035 267.35 466.487 264.897 466.487 255.31C466.487 247.729 465.259 246.281 454.881 241.822L448.63 239.146L438.921 236.137L431.779 234.576C427.874 233.796 422.851 233.126 420.731 233.015C418.499 233.015 412.92 231.008 407.34 228.222C398.076 223.651 397.63 223.539 386.694 223.539C374.195 223.539 365.378 226.104 358.235 231.678C356.115 233.349 351.651 235.467 348.526 236.248C345.29 237.029 339.264 239.147 335.135 240.93C324.31 245.501 318.73 245.278 304.892 239.704C298.866 237.252 293.174 235.244 292.393 235.244C291.611 235.244 289.045 233.685 286.702 231.789C279.336 225.992 271.077 223.539 258.355 223.539C247.53 223.539 246.861 223.763 237.264 228.333C230.79 231.455 225.768 233.015 222.755 233.015C220.299 233.126 214.943 233.796 210.925 234.688L191.507 237.92ZM280.786 252.3C294.177 256.648 298.306 262.556 298.418 277.494C298.529 285.409 298.084 287.973 295.963 292.32C288.598 307.369 267.617 315.842 242.731 313.947C223.648 312.386 213.827 307.036 208.582 295.219C205.234 287.527 204.788 269.133 207.911 263.447C210.814 258.096 216.394 254.418 225.544 251.966C232.687 250.071 236.593 249.847 254.449 250.071C269.849 250.405 276.545 250.962 280.786 252.3ZM419.168 252.3C432.56 256.648 436.689 262.556 436.801 277.494C436.913 285.409 436.466 287.973 434.345 292.32C426.98 307.369 405.999 315.842 381.113 313.947C362.03 312.386 352.208 307.036 346.963 295.219C343.615 287.527 343.17 269.133 346.294 263.447C349.196 258.096 354.776 254.418 363.926 251.966C371.069 250.071 374.974 249.847 392.83 250.071C408.231 250.405 414.927 250.962 419.168 252.3Z" fill="#A66F49"/>
<path fill-rule="evenodd" clip-rule="evenodd" d="M291.499 69.625L284.469 74.1959L280.897 70.7398C275.317 65.2778 272.639 66.2811 268.398 75.3107C265.832 80.8843 262.596 81.5536 257.016 77.8744C254.784 76.314 251.994 74.9761 250.878 74.9761C248.423 74.9761 246.079 78.7662 245.075 83.7826C244.294 87.9073 241.615 91.6974 239.383 91.6974C238.602 91.6974 235.7 90.6941 232.911 89.4677C228.669 87.5727 227.33 87.4612 224.987 88.4644C222.308 89.6908 222.085 90.3595 222.085 97.7172C222.085 103.068 221.304 107.193 219.853 110.314C217.733 114.996 217.621 115.108 212.376 115.108C203.671 115.108 199.542 119.455 203.783 124.249C206.015 126.59 204.564 129.042 200.212 130.046C192.177 132.052 189.833 137.18 194.186 142.642C197.199 146.544 197.087 147.102 192.288 149.331C187.267 151.783 186.486 154.571 189.722 158.026C192.177 160.702 192.177 160.813 190.837 175.528C189.499 189.798 189.945 229.595 191.507 233.719C191.954 234.946 190.503 236.172 186.151 238.402C176.999 242.972 176.33 243.864 176.33 251.222C176.33 260.697 177.781 263.15 184.031 264.041C190.391 264.933 194.409 266.382 195.525 268.166C195.971 268.946 196.418 272.513 196.418 276.192C196.418 284.107 198.873 295.255 201.886 301.052C210.368 317.55 232.464 325.911 259.248 322.79C272.417 321.117 280.117 318.554 288.487 312.98C300.986 304.619 306.789 293.917 307.682 277.084C308.351 266.828 308.351 266.828 311.7 265.714C316.052 264.153 326.877 264.153 331.341 265.714C334.801 266.94 334.801 266.94 334.801 274.855C334.801 283.996 337.144 294.921 340.269 301.052C348.75 317.551 370.847 325.911 397.519 322.791C410.799 321.118 418.499 318.554 426.869 312.981C439.368 304.62 445.172 293.584 446.287 276.305C447.068 264.934 446.511 265.491 458.786 263.93C465.036 263.15 466.487 260.697 466.487 251.111C466.487 243.531 465.259 242.081 454.881 237.622L448.631 234.946V223.799C448.519 204.736 448.227 184.894 443.539 180.546C439.887 182.152 428.567 176.002 425.777 174.664C421.425 172.546 422.589 172.545 422.589 178.309C421.609 180.484 425.753 183.668 429.101 190.356C433.23 198.605 436.913 212.54 438.14 224.58L438.922 231.937L431.779 230.376C427.873 229.596 422.851 228.927 420.731 228.816C418.499 228.816 412.919 226.809 407.339 224.022C398.076 219.452 397.63 219.34 386.694 219.34C374.194 219.34 365.378 221.904 358.236 227.478C356.115 229.15 351.651 231.268 348.527 232.049C345.291 232.829 339.264 234.947 335.135 236.731C324.31 241.301 318.73 241.078 304.892 235.504C298.866 233.052 293.174 231.045 292.393 231.045C291.612 231.045 289.045 229.484 286.701 227.589C279.336 221.793 271.077 219.34 258.355 219.34C247.53 219.34 246.86 219.563 237.263 224.133C230.79 227.255 225.768 228.816 222.755 228.816C220.3 228.927 214.943 229.596 210.926 230.488C199.543 232.94 200.435 234.389 201.328 215.661C201.998 199.609 204.118 186.009 206.574 181.326C209.363 176.087 231.46 164.828 253.333 157.47C280.452 148.441 310.918 144.985 345.291 147.326C374.752 149.221 382.565 151.673 415.151 169.175C426.534 175.307 437.136 180.212 439.591 180.546C443.609 181.103 443.943 180.88 445.171 177.536C447.85 169.844 445.729 150.447 441.265 141.64C437.918 135.175 437.694 132.722 439.591 126.034C440.93 121.351 440.93 120.348 439.257 117.896C437.694 115.555 436.578 115.109 432.114 115.109C429.213 115.221 424.749 115.666 422.182 116.112C417.606 117.004 417.495 117.004 418.053 114.106C420.285 103.181 417.606 100.728 406.781 103.515C403.322 104.407 400.085 104.965 399.862 104.63C399.528 104.296 399.862 100.951 400.643 97.2729C401.982 91.2531 401.871 90.2498 400.309 88.5773C398.634 87.0169 397.63 87.0169 391.157 88.2432C380.779 90.3614 376.872 89.3581 373.078 83.5608C369.173 77.8757 365.601 75.8691 361.919 77.3179C359.91 78.0981 357.789 77.7641 353.772 75.9806C349.531 74.1972 347.076 73.751 343.281 74.3081C339.376 74.9773 337.255 74.5312 333.572 72.6361C329.778 70.7411 327.658 70.4064 323.082 70.9635C318.172 71.5213 316.386 71.0751 310.695 68.2883C307.124 66.5048 302.883 65.0553 301.321 64.9438C299.758 64.9438 295.405 67.0607 291.499 69.625ZM280.786 248.1C294.178 252.448 298.307 258.356 298.418 273.294C298.53 281.209 298.083 283.773 295.963 288.12C288.598 303.17 267.617 311.642 242.731 309.747C223.648 308.187 213.827 302.836 208.582 291.019C205.234 283.327 204.787 264.933 207.912 259.248C210.814 253.897 216.394 250.218 225.544 247.766C232.687 245.87 236.593 245.647 254.449 245.87C269.849 246.205 276.545 246.762 280.786 248.1ZM419.168 248.1C432.56 252.448 436.689 258.356 436.8 273.294C436.912 281.209 436.466 283.773 434.345 288.12C426.98 303.17 405.999 311.642 381.113 309.747C362.03 308.187 352.209 302.836 346.964 291.019C343.616 283.327 343.169 264.933 346.294 259.248C349.196 253.897 354.776 250.218 363.926 247.766C371.069 245.87 374.975 245.647 392.831 245.87C408.231 246.205 414.927 246.762 419.168 248.1Z" fill="#2C1B18"/>
<path fill-rule="evenodd" clip-rule="evenodd" d="M244.851 261.589C238.936 264.376 232.128 271.399 232.128 274.743C232.128 277.307 233.914 277.307 237.374 274.52C246.413 267.386 265.608 267.386 275.429 274.409C277.326 275.635 279.335 276.749 280.005 276.749C282.348 276.749 281.232 272.736 277.661 268.5C272.974 262.703 264.604 258.913 256.68 258.913C252.551 258.913 248.645 259.805 244.851 261.588V261.589Z" fill="#533824"/>
<path fill-rule="evenodd" clip-rule="evenodd" d="M374.305 261.589C368.391 264.376 361.583 271.399 361.583 274.743C361.583 277.307 363.369 277.307 366.829 274.52C375.868 267.386 395.063 267.386 404.884 274.409C406.78 275.635 408.789 276.749 409.459 276.749C411.803 276.749 410.687 272.736 407.115 268.5C402.429 262.703 394.059 258.913 386.135 258.913C382.006 258.913 378.1 259.805 374.306 261.588L374.305 261.589Z" fill="#533824"/>
<path fill-rule="evenodd" clip-rule="evenodd" d="M295.405 314.875C296.633 319.669 300.204 323.459 306.453 326.469C311.476 328.921 314.042 329.479 321.408 329.479C328.773 329.479 331.34 328.921 336.362 326.469C342.612 323.459 346.182 319.669 347.41 314.875L347.968 312.423H321.408H294.847L295.405 314.875Z" fill="#AF754C"/>
<path fill-rule="evenodd" clip-rule="evenodd" d="M191.507 233.719C191.954 234.946 190.503 236.172 186.151 238.402C177.143 242.9 176.353 243.836 176.33 250.881V251.222C176.33 260.697 177.781 263.149 184.03 264.042C190.391 264.933 194.41 266.382 195.526 268.166C195.971 268.946 196.419 272.514 196.419 276.192C196.419 284.107 198.873 295.256 201.887 301.052C210.368 317.55 232.464 325.911 259.248 322.79C272.416 321.117 280.117 318.554 288.487 312.98C300.986 304.619 306.789 293.918 307.681 277.085C308.351 266.828 308.351 266.828 311.7 265.713C316.052 264.153 326.877 264.153 331.341 265.713C334.8 266.94 334.8 266.94 334.8 274.855C334.8 283.996 337.144 294.921 340.268 301.053C348.75 317.55 370.847 325.911 397.519 322.79C410.799 321.118 418.499 318.554 426.869 312.981C439.368 304.62 445.172 293.584 446.287 276.305C447.068 264.933 446.511 265.491 458.786 263.93C465.035 263.15 466.487 260.697 466.487 251.11C466.487 243.53 465.259 242.082 454.881 237.622L448.63 234.946L438.921 231.938L431.779 230.376C427.874 229.597 422.851 228.927 420.731 228.815C418.499 228.815 412.92 226.809 407.34 224.022C398.076 219.451 397.63 219.34 386.694 219.34C374.195 219.34 365.378 221.904 358.235 227.478C356.115 229.15 351.651 231.268 348.526 232.048C345.29 232.829 339.264 234.947 335.135 236.731C324.31 241.301 318.73 241.078 304.892 235.504C298.866 233.053 293.174 231.045 292.393 231.045C291.611 231.045 289.045 229.485 286.702 227.59C279.336 221.793 271.077 219.34 258.355 219.34C247.53 219.34 246.861 219.563 237.264 224.134C230.79 227.255 225.768 228.815 222.755 228.815C220.299 228.927 214.943 229.597 210.925 230.488L191.507 233.719ZM280.786 248.101C294.177 252.449 298.306 258.356 298.418 273.294C298.529 281.209 298.084 283.774 295.963 288.12C288.598 303.17 267.617 311.643 242.731 309.747C223.648 308.187 213.827 302.836 208.582 291.019C205.234 283.327 204.788 264.933 207.911 259.248C210.814 253.897 216.394 250.219 225.544 247.766C232.687 245.871 236.593 245.648 254.449 245.871C269.849 246.204 276.545 246.763 280.786 248.101ZM419.168 248.101C432.56 252.449 436.689 258.356 436.801 273.294C436.913 281.209 436.466 283.774 434.345 288.12C426.98 303.17 405.999 311.643 381.113 309.747C362.03 308.187 352.208 302.836 346.963 291.019C343.615 283.327 343.17 264.933 346.294 259.248C349.196 253.897 354.776 250.219 363.926 247.766C371.069 245.871 374.974 245.648 392.83 245.871C408.231 246.204 414.927 246.763 419.168 248.101Z" fill="#171A1C"/>
<path fill-rule="evenodd" clip-rule="evenodd" d="M290.272 359.689C291.723 368.941 298.753 378.417 307.458 382.876C313.819 386.22 325.537 386.889 332.233 384.325C342.277 380.424 350.982 369.945 352.544 359.689H290.272Z" fill="#3E291B"/>
<path fill-rule="evenodd" clip-rule="evenodd" d="M242.048 465.926C208.558 469.193 178.132 481.693 152.814 502.527C131.028 520.379 124.95 534.567 109 554.774C141.498 588.536 185.199 617.142 232.854 632.942C264.642 643.415 286.327 646.794 320.386 646.794C354.447 646.794 376.131 643.415 407.92 632.942C455.997 617.546 496.494 592.316 533 556.103C507.997 523.787 497.706 502.606 457.419 482.706C440.502 474.26 420.635 468.178 405.422 466.601L398.257 465.955L397.916 465.947L397.134 471.332C393.728 497.009 361.6 515.929 321.522 515.929C281.446 515.929 249.884 497.234 245.796 471.219C245.002 466.039 244.661 465.588 242.05 465.926H242.048Z" fill="#111517"/>
<path d="M363.649 576.823L371.91 570.113C373.824 568.558 376.638 568.848 378.194 570.76C379.75 572.673 379.46 575.484 377.546 577.038L373.548 580.286L402.573 604.719C404.487 606.274 404.777 609.085 403.221 610.997C402.338 612.083 401.05 612.645 399.752 612.645C398.762 612.645 397.765 612.318 396.937 611.645L363.649 583.749C362.606 582.901 362 581.629 362 580.286C362 578.942 362.606 577.671 363.649 576.823Z" fill="white"/>
<path d="M385.649 577.063L393.91 570.353C395.824 568.799 398.638 569.089 400.194 571C401.75 572.913 401.46 575.724 399.546 577.279L395.548 580.526L424.573 604.96C426.487 606.515 426.777 609.326 425.221 611.238C424.338 612.323 423.05 612.886 421.752 612.886C420.762 612.886 419.765 612.558 418.937 611.886L388.246 586.165L385.649 583.989C384.606 583.142 384 581.87 384 580.526C384 579.183 384.606 577.912 385.649 577.063Z" fill="#C83267"/>
<path d="M422.331 536.063C424.702 536.082 426.61 538.018 426.591 540.388L426.222 608.629C426.203 610.999 424.264 612.904 421.893 612.885C421.292 612.881 420.721 612.753 420.204 612.526C418.679 611.858 417.618 610.33 417.632 608.56L418.002 540.32C418.021 537.95 419.959 536.044 422.331 536.063Z" fill="#C83267"/>
<path d="M400.331 535.822C402.702 535.841 404.61 537.777 404.591 540.147L404.222 608.388C404.203 610.758 402.264 612.664 399.893 612.645C399.292 612.64 398.721 612.512 398.204 612.286C396.679 611.618 395.618 610.09 395.632 608.32L396.002 540.079C396.021 537.709 397.959 535.803 400.331 535.822Z" fill="white"/>
<path d="M393.91 570.353L385.649 577.063C384.606 577.912 384 579.183 384 580.526C384 581.87 384.606 583.142 385.649 583.989C385.649 583.989 386.416 584.719 387 585.05C390.286 586.912 395.548 580.526 395.548 580.526L399.546 577.279C401.46 575.724 401.75 572.913 400.194 571C398.638 569.089 395.824 568.799 393.91 570.353Z" fill="#C83267"/>
<defs>
<filter id="filter0_d_348_28" x="484.333" y="249.3" width="171.62" height="171.62" filterUnits="userSpaceOnUse" color-interpolation-filters="sRGB">
<feFlood flood-opacity="0" result="BackgroundImageFix"/>
<feColorMatrix in="SourceAlpha" type="matrix" values="0 0 0 0 0 0 0 0 0 0 0 0 0 0 0 0 0 0 127 0" result="hardAlpha"/>
<feOffset dy="4"/>
<feGaussianBlur stdDeviation="25"/>
<feComposite in2="hardAlpha" operator="out"/>
<feColorMatrix type="matrix" values="0 0 0 0 0 0 0 0 0 0 0 0 0 0 0 0 0 0 0.5 0"/>
<feBlend mode="normal" in2="BackgroundImageFix" result="effect1_dropShadow_348_28"/>
<feBlend mode="normal" in="SourceGraphic" in2="effect1_dropShadow_348_28" result="shape"/>
</filter>
<filter id="filter1_d_348_28" x="0" y="157.984" width="171.62" height="171.62" filterUnits="userSpaceOnUse" color-interpolation-filters="sRGB">
<feFlood flood-opacity="0" result="BackgroundImageFix"/>
<feColorMatrix in="SourceAlpha" type="matrix" values="0 0 0 0 0 0 0 0 0 0 0 0 0 0 0 0 0 0 127 0" result="hardAlpha"/>
<feOffset dy="4"/>
<feGaussianBlur stdDeviation="25"/>
<feComposite in2="hardAlpha" operator="out"/>
<feColorMatrix type="matrix" values="0 0 0 0 0 0 0 0 0 0 0 0 0 0 0 0 0 0 0.5 0"/>
<feBlend mode="normal" in2="BackgroundImageFix" result="effect1_dropShadow_348_28"/>
<feBlend mode="normal" in="SourceGraphic" in2="effect1_dropShadow_348_28" result="shape"/>
</filter>
<filter id="filter2_d_348_28" x="0" y="387.169" width="171.62" height="171.62" filterUnits="userSpaceOnUse" color-interpolation-filters="sRGB">
<feFlood flood-opacity="0" result="BackgroundImageFix"/>
<feColorMatrix in="SourceAlpha" type="matrix" values="0 0 0 0 0 0 0 0 0 0 0 0 0 0 0 0 0 0 127 0" result="hardAlpha"/>
<feOffset dy="4"/>
<feGaussianBlur stdDeviation="25"/>
<feComposite in2="hardAlpha" operator="out"/>
<feColorMatrix type="matrix" values="0 0 0 0 0 0 0 0 0 0 0 0 0 0 0 0 0 0 0.5 0"/>
<feBlend mode="normal" in2="BackgroundImageFix" result="effect1_dropShadow_348_28"/>
<feBlend mode="normal" in="SourceGraphic" in2="effect1_dropShadow_348_28" result="shape"/>
</filter>
<filter id="filter3_f_348_28" x="4.47626" y="0" width="610.296" height="610.296" filterUnits="userSpaceOnUse" color-interpolation-filters="sRGB">
<feFlood flood-opacity="0" result="BackgroundImageFix"/>
<feBlend mode="normal" in="SourceGraphic" in2="BackgroundImageFix" result="shape"/>
<feGaussianBlur stdDeviation="25" result="effect1_foregroundBlur_348_28"/>
</filter>
<filter id="filter4_i_348_28" x="104.663" y="466.683" width="430.095" height="187.109" filterUnits="userSpaceOnUse" color-interpolation-filters="sRGB">
<feFlood flood-opacity="0" result="BackgroundImageFix"/>
<feBlend mode="normal" in="SourceGraphic" in2="BackgroundImageFix" result="shape"/>
<feColorMatrix in="SourceAlpha" type="matrix" values="0 0 0 0 0 0 0 0 0 0 0 0 0 0 0 0 0 0 127 0" result="hardAlpha"/>
<feOffset dy="4"/>
<feGaussianBlur stdDeviation="2"/>
<feComposite in2="hardAlpha" operator="arithmetic" k2="-1" k3="1"/>
<feColorMatrix type="matrix" values="0 0 0 0 0 0 0 0 0 0 0 0 0 0 0 0 0 0 0.25 0"/>
<feBlend mode="normal" in2="shape" result="effect1_innerShadow_348_28"/>
</filter>
<clipPath id="clip0_348_28">
<rect width="35.8102" height="35.801" fill="white" transform="translate(552.238 313.085)"/>
</clipPath>
</defs>
</svg>
