<svg width="35" height="42" viewBox="0 0 35 42" fill="none" xmlns="http://www.w3.org/2000/svg">
<path d="M0.893491 22.2171L5.36971 18.5811C6.40704 17.7386 7.93173 17.8958 8.77491 18.9318C9.61848 19.9682 9.46117 21.4915 8.42384 22.3339L6.25765 24.0936L21.9852 37.3335C23.0225 38.1759 23.1798 39.6992 22.3363 40.7352C21.858 41.3235 21.1603 41.6283 20.457 41.6283C19.9205 41.6283 19.38 41.4509 18.9315 41.0863L0.893491 25.97C0.328467 25.5108 0 24.8216 0 24.0936C0 23.3656 0.328467 22.6767 0.893491 22.2171Z" fill="white"/>
<path d="M12.8147 22.3474L17.2909 18.7113C18.3282 17.8689 19.8529 18.0261 20.6961 19.0621C21.5397 20.0985 21.3823 21.6218 20.345 22.4642L18.1788 24.2238L33.9064 37.4637C34.9437 38.3061 35.101 39.8295 34.2574 40.8655C33.7792 41.4537 33.0814 41.7585 32.3781 41.7585C31.8416 41.7585 31.3012 41.5812 30.8527 41.2166L14.2219 27.2796L12.8147 26.1003C12.2496 25.6411 11.9212 24.9518 11.9212 24.2238C11.9212 23.4958 12.2496 22.807 12.8147 22.3474Z" fill="#C83267"/>
<path d="M32.6915 0.130356C33.9764 0.140648 35.0102 1.18971 34.9999 2.47392L34.7998 39.4519C34.7895 40.7361 33.7391 41.7685 32.4541 41.7582C32.1284 41.7558 31.8194 41.6865 31.5388 41.5638C30.7127 41.2016 30.1378 40.3738 30.1453 39.4146L30.3458 2.4371C30.3561 1.15289 31.4061 0.120063 32.6915 0.130356Z" fill="#C83267"/>
<path d="M20.7703 7.62648e-05C22.0553 0.0103689 23.089 1.05944 23.0787 2.34364L22.8786 39.3216C22.8683 40.6058 21.8179 41.6382 20.533 41.6279C20.2073 41.6255 19.8982 41.5563 19.6177 41.4335C18.7915 41.0713 18.2166 40.2435 18.2241 39.2843L18.4246 2.30682C18.4349 1.02261 19.4849 -0.0102164 20.7703 7.62648e-05Z" fill="white"/>
<path d="M17.2909 18.7113L12.8147 22.3474C12.2496 22.807 11.9212 23.4958 11.9212 24.2238C11.9212 24.9518 12.2496 25.6411 12.8147 26.1003C12.8147 26.1003 13.2305 26.4959 13.5468 26.6751C15.3275 27.6839 18.1788 24.2238 18.1788 24.2238L20.345 22.4642C21.3823 21.6218 21.5397 20.0985 20.6961 19.0621C19.8529 18.0261 18.3282 17.8689 17.2909 18.7113Z" fill="#C83267"/>
</svg>
